<?xml version="1.0" encoding="utf-8"?>
<svg width="651" height="1324" viewBox="0 0 651 1324" xmlns="http://www.w3.org/2000/svg">
<rect id="frame" x="0" y="0" width="651" height="1324" fill="#f7f7f7" stroke="none" stroke-width="0"/>

<!-- Association Collaborer -->
<g class="page_0_7qixugHm diagram_page" visibility="visible">
	<line x1="66" y1="220" x2="66" y2="94" stroke="#de77ae" stroke-width="2"/>
	<text x="71" y="136" fill="#4d9221" font-family="Verdana" font-size="12">1,1</text>
	<line x1="329" y1="94" x2="66" y2="94" stroke="#de77ae" stroke-width="2"/>
	<text x="246" y="111" fill="#4d9221" font-family="Verdana" font-size="12">0,N</text>
	<g>
		<path d="M91 69 a14 14 90 0 1 14 14 V94 h-78 V83 a14 14 90 0 1 14 -14" fill="#f1b6da" stroke="#f1b6da" stroke-width="0"/>
		<path d="M105 94 v11 a14 14 90 0 1 -14 14 H41 a14 14 90 0 1 -14 -14 V94 H78" fill="#fde0ef" stroke="#fde0ef" stroke-width="0"/>
		<rect x="27" y="69" width="78" height="50" fill="none" rx="14" stroke="#de77ae" stroke-width="2"/>
		<line x1="27" y1="94" x2="105" y2="94" stroke="#de77ae" stroke-width="1"/>
		<text x="35" y="86.75" fill="#000" font-family="Verdana" font-size="12">Collaborer</text>
	</g>
</g>

<!-- Association Définir -->
<g class="page_0_7qixugHm diagram_page" visibility="visible">
	<line x1="329" y1="94" x2="462" y2="94" stroke="#de77ae" stroke-width="2"/>
	<text x="390" y="111" fill="#4d9221" font-family="Verdana" font-size="12">0,N</text>
	<line x1="585" y1="94" x2="462" y2="94" stroke="#de77ae" stroke-width="2"/>
	<text x="519" y="111" fill="#4d9221" font-family="Verdana" font-size="12">1,1</text>
	<g>
		<path d="M476 69 a14 14 90 0 1 14 14 V94 h-56 V83 a14 14 90 0 1 14 -14" fill="#f1b6da" stroke="#f1b6da" stroke-width="0"/>
		<path d="M490 94 v11 a14 14 90 0 1 -14 14 H448 a14 14 90 0 1 -14 -14 V94 H56" fill="#fde0ef" stroke="#fde0ef" stroke-width="0"/>
		<rect x="434" y="69" width="56" height="50" fill="none" rx="14" stroke="#de77ae" stroke-width="2"/>
		<line x1="434" y1="94" x2="490" y2="94" stroke="#de77ae" stroke-width="1"/>
		<text x="442" y="86.75" fill="#000" font-family="Verdana" font-size="12">Définir</text>
	</g>
</g>

<!-- Association Rappeler2 -->
<g class="page_0_7qixugHm diagram_page" visibility="visible">
	<line x1="66" y1="220" x2="585" y2="220" stroke="#de77ae" stroke-width="2"/>
	<text x="128" y="237" fill="#4d9221" font-family="Verdana" font-size="12">0,N</text>
	<line x1="585" y1="489" x2="585" y2="220" stroke="#de77ae" stroke-width="2"/>
	<text x="590" y="430" fill="#4d9221" font-family="Verdana" font-size="12">1,1</text>
	<g>
		<path d="M605 195 a14 14 90 0 1 14 14 V220 h-68 V209 a14 14 90 0 1 14 -14" fill="#f1b6da" stroke="#f1b6da" stroke-width="0"/>
		<path d="M619 220 v11 a14 14 90 0 1 -14 14 H565 a14 14 90 0 1 -14 -14 V220 H68" fill="#fde0ef" stroke="#fde0ef" stroke-width="0"/>
		<rect x="551" y="195" width="68" height="50" fill="none" rx="14" stroke="#de77ae" stroke-width="2"/>
		<line x1="551" y1="220" x2="619" y2="220" stroke="#de77ae" stroke-width="1"/>
		<text x="558" y="212.75" fill="#000" font-family="Verdana" font-size="12">Rappeler</text>
	</g>
</g>

<!-- Association Appartenir2 -->
<g class="page_0_7qixugHm diagram_page" visibility="visible">
	<line x1="66" y1="220" x2="66" y2="346" stroke="#de77ae" stroke-width="2"/>
	<text x="71" y="313" fill="#4d9221" font-family="Verdana" font-size="12">0,N</text>
	<line x1="66" y1="489" x2="66" y2="346" stroke="#de77ae" stroke-width="2"/>
	<text x="71" y="430" fill="#4d9221" font-family="Verdana" font-size="12">1,1</text>
	<g>
		<path d="M91 321 a14 14 90 0 1 14 14 V346 h-78 V335 a14 14 90 0 1 14 -14" fill="#f1b6da" stroke="#f1b6da" stroke-width="0"/>
		<path d="M105 346 v11 a14 14 90 0 1 -14 14 H41 a14 14 90 0 1 -14 -14 V346 H78" fill="#fde0ef" stroke="#fde0ef" stroke-width="0"/>
		<rect x="27" y="321" width="78" height="50" fill="none" rx="14" stroke="#de77ae" stroke-width="2"/>
		<line x1="27" y1="346" x2="105" y2="346" stroke="#de77ae" stroke-width="1"/>
		<text x="34" y="338.75" fill="#000" font-family="Verdana" font-size="12">Appartenir</text>
	</g>
</g>

<!-- Association Prendre en charge -->
<g class="page_0_7qixugHm diagram_page" visibility="visible">
	<line x1="329" y1="94" x2="329" y2="346" stroke="#de77ae" stroke-width="2"/>
	<text x="334" y="196" fill="#4d9221" font-family="Verdana" font-size="12">0,N</text>
	<line x1="329" y1="489" x2="329" y2="346" stroke="#de77ae" stroke-width="2"/>
	<text x="334" y="388" fill="#4d9221" font-family="Verdana" font-size="12">1,1</text>
	<g>
		<path d="M378 321 a14 14 90 0 1 14 14 V346 h-126 V335 a14 14 90 0 1 14 -14" fill="#f1b6da" stroke="#f1b6da" stroke-width="0"/>
		<path d="M392 346 v11 a14 14 90 0 1 -14 14 H280 a14 14 90 0 1 -14 -14 V346 H126" fill="#fde0ef" stroke="#fde0ef" stroke-width="0"/>
		<rect x="266" y="321" width="126" height="50" fill="none" rx="14" stroke="#de77ae" stroke-width="2"/>
		<line x1="266" y1="346" x2="392" y2="346" stroke="#de77ae" stroke-width="1"/>
		<text x="273" y="338.75" fill="#000" font-family="Verdana" font-size="12">Prendre en charge</text>
	</g>
</g>

<!-- Association Appartenir1 -->
<g class="page_0_7qixugHm diagram_page" visibility="visible">
	<line x1="329" y1="489" x2="191" y2="489" stroke="#de77ae" stroke-width="2"/>
	<text x="235" y="481" fill="#4d9221" font-family="Verdana" font-size="12">0,N</text>
	<line x1="66" y1="489" x2="191" y2="489" stroke="#de77ae" stroke-width="2"/>
	<text x="125" y="506" fill="#4d9221" font-family="Verdana" font-size="12">1,1</text>
	<g>
		<path d="M216 464 a14 14 90 0 1 14 14 V489 h-78 V478 a14 14 90 0 1 14 -14" fill="#f1b6da" stroke="#f1b6da" stroke-width="0"/>
		<path d="M230 489 v11 a14 14 90 0 1 -14 14 H166 a14 14 90 0 1 -14 -14 V489 H78" fill="#fde0ef" stroke="#fde0ef" stroke-width="0"/>
		<rect x="152" y="464" width="78" height="50" fill="none" rx="14" stroke="#de77ae" stroke-width="2"/>
		<line x1="152" y1="489" x2="230" y2="489" stroke="#de77ae" stroke-width="1"/>
		<text x="159" y="481.75" fill="#000" font-family="Verdana" font-size="12">Appartenir</text>
	</g>
</g>

<!-- Association Rappeler1 -->
<g class="page_0_7qixugHm diagram_page" visibility="visible">
	<line x1="329" y1="489" x2="462" y2="489" stroke="#de77ae" stroke-width="2"/>
	<text x="401" y="506" fill="#4d9221" font-family="Verdana" font-size="12">0,N</text>
	<line x1="585" y1="489" x2="462" y2="489" stroke="#de77ae" stroke-width="2"/>
	<text x="502" y="506" fill="#4d9221" font-family="Verdana" font-size="12">1,1</text>
	<g>
		<path d="M482 464 a14 14 90 0 1 14 14 V489 h-68 V478 a14 14 90 0 1 14 -14" fill="#f1b6da" stroke="#f1b6da" stroke-width="0"/>
		<path d="M496 489 v11 a14 14 90 0 1 -14 14 H442 a14 14 90 0 1 -14 -14 V489 H68" fill="#fde0ef" stroke="#fde0ef" stroke-width="0"/>
		<rect x="428" y="464" width="68" height="50" fill="none" rx="14" stroke="#de77ae" stroke-width="2"/>
		<line x1="428" y1="489" x2="496" y2="489" stroke="#de77ae" stroke-width="1"/>
		<text x="435" y="481.75" fill="#000" font-family="Verdana" font-size="12">Rappeler</text>
	</g>
</g>

<!-- Association Engager -->
<g class="page_0_7qixugHm diagram_page" visibility="visible">
	<line x1="329" y1="489" x2="191" y2="675" stroke="#de77ae" stroke-width="2"/>
	<text x="235" y="576.91" fill="#4d9221" font-family="Verdana" font-size="12">0,N</text>
	<line x1="329" y1="784" x2="191" y2="675" stroke="#de77ae" stroke-width="2"/>
	<text x="255" y="757.18" fill="#4d9221" font-family="Verdana" font-size="12">1,1</text>
	<g>
		<path d="M210 650 a14 14 90 0 1 14 14 V675 h-66 V664 a14 14 90 0 1 14 -14" fill="#f1b6da" stroke="#f1b6da" stroke-width="0"/>
		<path d="M224 675 v11 a14 14 90 0 1 -14 14 H172 a14 14 90 0 1 -14 -14 V675 H66" fill="#fde0ef" stroke="#fde0ef" stroke-width="0"/>
		<rect x="158" y="650" width="66" height="50" fill="none" rx="14" stroke="#de77ae" stroke-width="2"/>
		<line x1="158" y1="675" x2="224" y2="675" stroke="#de77ae" stroke-width="1"/>
		<text x="166" y="667.75" fill="#000" font-family="Verdana" font-size="12">Engager</text>
	</g>
</g>

<!-- Association Posséder -->
<g class="page_0_7qixugHm diagram_page" visibility="visible">
	<line x1="329" y1="489" x2="329" y2="675" stroke="#de77ae" stroke-width="2"/>
	<text x="334" y="599" fill="#4d9221" font-family="Verdana" font-size="12">0,N</text>
	<line x1="462" y1="675" x2="329" y2="675" stroke="#de77ae" stroke-width="2"/>
	<text x="388" y="692" fill="#4d9221" font-family="Verdana" font-size="12">1,1</text>
	<g>
		<path d="M350 650 a14 14 90 0 1 14 14 V675 h-70 V664 a14 14 90 0 1 14 -14" fill="#f1b6da" stroke="#f1b6da" stroke-width="0"/>
		<path d="M364 675 v11 a14 14 90 0 1 -14 14 H308 a14 14 90 0 1 -14 -14 V675 H70" fill="#fde0ef" stroke="#fde0ef" stroke-width="0"/>
		<rect x="294" y="650" width="70" height="50" fill="none" rx="14" stroke="#de77ae" stroke-width="2"/>
		<line x1="294" y1="675" x2="364" y2="675" stroke="#de77ae" stroke-width="1"/>
		<text x="302" y="667.75" fill="#000" font-family="Verdana" font-size="12">Posséder</text>
	</g>
</g>

<!-- Association Appartenir3 -->
<g class="page_0_7qixugHm diagram_page" visibility="visible">
	<line x1="329" y1="784" x2="66" y2="784" stroke="#de77ae" stroke-width="2"/>
	<text x="254" y="801" fill="#4d9221" font-family="Verdana" font-size="12">0,N</text>
	<line x1="66" y1="489" x2="66" y2="784" stroke="#de77ae" stroke-width="2"/>
	<text x="71" y="557" fill="#4d9221" font-family="Verdana" font-size="12">1,1</text>
	<g>
		<path d="M91 759 a14 14 90 0 1 14 14 V784 h-78 V773 a14 14 90 0 1 14 -14" fill="#f1b6da" stroke="#f1b6da" stroke-width="0"/>
		<path d="M105 784 v11 a14 14 90 0 1 -14 14 H41 a14 14 90 0 1 -14 -14 V784 H78" fill="#fde0ef" stroke="#fde0ef" stroke-width="0"/>
		<rect x="27" y="759" width="78" height="50" fill="none" rx="14" stroke="#de77ae" stroke-width="2"/>
		<line x1="27" y1="784" x2="105" y2="784" stroke="#de77ae" stroke-width="1"/>
		<text x="34" y="776.75" fill="#000" font-family="Verdana" font-size="12">Appartenir</text>
	</g>
</g>

<!-- Association Rappeler3 -->
<g class="page_0_7qixugHm diagram_page" visibility="visible">
	<line x1="329" y1="784" x2="585" y2="784" stroke="#de77ae" stroke-width="2"/>
	<text x="382" y="801" fill="#4d9221" font-family="Verdana" font-size="12">0,N</text>
	<line x1="585" y1="489" x2="585" y2="784" stroke="#de77ae" stroke-width="2"/>
	<text x="590" y="557" fill="#4d9221" font-family="Verdana" font-size="12">1,1</text>
	<g>
		<path d="M605 759 a14 14 90 0 1 14 14 V784 h-68 V773 a14 14 90 0 1 14 -14" fill="#f1b6da" stroke="#f1b6da" stroke-width="0"/>
		<path d="M619 784 v11 a14 14 90 0 1 -14 14 H565 a14 14 90 0 1 -14 -14 V784 H68" fill="#fde0ef" stroke="#fde0ef" stroke-width="0"/>
		<rect x="551" y="759" width="68" height="50" fill="none" rx="14" stroke="#de77ae" stroke-width="2"/>
		<line x1="551" y1="784" x2="619" y2="784" stroke="#de77ae" stroke-width="1"/>
		<text x="558" y="776.75" fill="#000" font-family="Verdana" font-size="12">Rappeler</text>
	</g>
</g>

<!-- Association Contenir -->
<g class="page_0_7qixugHm diagram_page" visibility="visible">
	<line x1="329" y1="784" x2="329" y2="893" stroke="#de77ae" stroke-width="2"/>
	<text x="334" y="860" fill="#4d9221" font-family="Verdana" font-size="12">0,N</text>
	<line x1="329" y1="1028" x2="329" y2="893" stroke="#de77ae" stroke-width="2"/>
	<text x="303" y="935" fill="#4d9221" font-family="Verdana" font-size="12">1,1</text>
	<g>
		<path d="M348 868 a14 14 90 0 1 14 14 V893 h-66 V882 a14 14 90 0 1 14 -14" fill="#f1b6da" stroke="#f1b6da" stroke-width="0"/>
		<path d="M362 893 v11 a14 14 90 0 1 -14 14 H310 a14 14 90 0 1 -14 -14 V893 H66" fill="#fde0ef" stroke="#fde0ef" stroke-width="0"/>
		<rect x="296" y="868" width="66" height="50" fill="none" rx="14" stroke="#de77ae" stroke-width="2"/>
		<line x1="296" y1="893" x2="362" y2="893" stroke="#de77ae" stroke-width="1"/>
		<text x="303" y="885.75" fill="#000" font-family="Verdana" font-size="12">Contenir</text>
	</g>
</g>

<!-- Association Concerner -->
<g class="page_0_7qixugHm diagram_page" visibility="visible">
	<line x1="462" y1="675" x2="462" y2="893" stroke="#de77ae" stroke-width="2"/>
	<text x="467" y="760" fill="#4d9221" font-family="Verdana" font-size="12">0,N</text>
	<line x1="329" y1="1028" x2="462" y2="893" stroke="#de77ae" stroke-width="2"/>
	<text x="394" y="977.1" fill="#4d9221" font-family="Verdana" font-size="12">1,1</text>
	<g>
		<path d="M487 868 a14 14 90 0 1 14 14 V893 h-78 V882 a14 14 90 0 1 14 -14" fill="#f1b6da" stroke="#f1b6da" stroke-width="0"/>
		<path d="M501 893 v11 a14 14 90 0 1 -14 14 H437 a14 14 90 0 1 -14 -14 V893 H78" fill="#fde0ef" stroke="#fde0ef" stroke-width="0"/>
		<rect x="423" y="868" width="78" height="50" fill="none" rx="14" stroke="#de77ae" stroke-width="2"/>
		<line x1="423" y1="893" x2="501" y2="893" stroke="#de77ae" stroke-width="1"/>
		<text x="431" y="885.75" fill="#000" font-family="Verdana" font-size="12">Concerner</text>
	</g>
</g>

<!-- Association Appartenir4 -->
<g class="page_0_7qixugHm diagram_page" visibility="visible">
	<line x1="329" y1="1028" x2="66" y2="1028" stroke="#de77ae" stroke-width="2"/>
	<text x="242" y="1045" fill="#4d9221" font-family="Verdana" font-size="12">0,N</text>
	<line x1="66" y1="489" x2="66" y2="1028" stroke="#de77ae" stroke-width="2"/>
	<text x="71" y="557" fill="#4d9221" font-family="Verdana" font-size="12">1,1</text>
	<g>
		<path d="M91 1003 a14 14 90 0 1 14 14 V1028 h-78 V1017 a14 14 90 0 1 14 -14" fill="#f1b6da" stroke="#f1b6da" stroke-width="0"/>
		<path d="M105 1028 v11 a14 14 90 0 1 -14 14 H41 a14 14 90 0 1 -14 -14 V1028 H78" fill="#fde0ef" stroke="#fde0ef" stroke-width="0"/>
		<rect x="27" y="1003" width="78" height="50" fill="none" rx="14" stroke="#de77ae" stroke-width="2"/>
		<line x1="27" y1="1028" x2="105" y2="1028" stroke="#de77ae" stroke-width="1"/>
		<text x="34" y="1020.75" fill="#000" font-family="Verdana" font-size="12">Appartenir</text>
	</g>
</g>

<!-- Association Rappeler4 -->
<g class="page_0_7qixugHm diagram_page" visibility="visible">
	<line x1="329" y1="1028" x2="585" y2="1028" stroke="#de77ae" stroke-width="2"/>
	<text x="394" y="1045" fill="#4d9221" font-family="Verdana" font-size="12">0,N</text>
	<line x1="585" y1="489" x2="585" y2="1028" stroke="#de77ae" stroke-width="2"/>
	<text x="590" y="557" fill="#4d9221" font-family="Verdana" font-size="12">1,1</text>
	<g>
		<path d="M605 1003 a14 14 90 0 1 14 14 V1028 h-68 V1017 a14 14 90 0 1 14 -14" fill="#f1b6da" stroke="#f1b6da" stroke-width="0"/>
		<path d="M619 1028 v11 a14 14 90 0 1 -14 14 H565 a14 14 90 0 1 -14 -14 V1028 H68" fill="#fde0ef" stroke="#fde0ef" stroke-width="0"/>
		<rect x="551" y="1003" width="68" height="50" fill="none" rx="14" stroke="#de77ae" stroke-width="2"/>
		<line x1="551" y1="1028" x2="619" y2="1028" stroke="#de77ae" stroke-width="1"/>
		<text x="558" y="1020.75" fill="#000" font-family="Verdana" font-size="12">Rappeler</text>
	</g>
</g>

<!-- Association Illustrer -->
<g class="page_0_7qixugHm diagram_page" visibility="visible">
	<line x1="329" y1="1028" x2="329" y2="1163" stroke="#de77ae" stroke-width="2"/>
	<text x="334" y="1130" fill="#4d9221" font-family="Verdana" font-size="12">0,N</text>
	<line x1="329" y1="1264" x2="329" y2="1163" stroke="#de77ae" stroke-width="2"/>
	<text x="334" y="1205" fill="#4d9221" font-family="Verdana" font-size="12">1,1</text>
	<g>
		<path d="M347 1138 a14 14 90 0 1 14 14 V1163 h-64 V1152 a14 14 90 0 1 14 -14" fill="#f1b6da" stroke="#f1b6da" stroke-width="0"/>
		<path d="M361 1163 v11 a14 14 90 0 1 -14 14 H311 a14 14 90 0 1 -14 -14 V1163 H64" fill="#fde0ef" stroke="#fde0ef" stroke-width="0"/>
		<rect x="297" y="1138" width="64" height="50" fill="none" rx="14" stroke="#de77ae" stroke-width="2"/>
		<line x1="297" y1="1163" x2="361" y2="1163" stroke="#de77ae" stroke-width="1"/>
		<text x="305" y="1155.75" fill="#000" font-family="Verdana" font-size="12">Illustrer</text>
	</g>
</g>

<!-- Entity PRESTATAIRE -->
<g class="page_0_7qixugHm diagram_page" visibility="visible">
	<g>
		<rect x="273" y="9" width="112" height="25" fill="#b8e186" stroke="#b8e186" stroke-width="0" opacity="1"/>
		<rect x="273" y="34" width="112" height="145" fill="#e6f5d0" stroke="#e6f5d0" stroke-width="0" opacity="1"/>
		<rect x="273" y="9" width="112" height="170" fill="none" stroke="#7fbc41" stroke-width="2" opacity="1"/>
		<line x1="273" y1="34" x2="385" y2="34" stroke="#7fbc41" stroke-width="1"/>
	</g>
	<text x="287" y="26.75" fill="#000" font-family="Verdana" font-size="12">PRESTATAIRE</text>
	<text x="278" y="51.8" fill="#000" font-family="Verdana" font-size="12">code_prestataire</text>
	<line x1="278" y1="54" x2="380" y2="54" stroke="#000" stroke-width="1"/>
	<text x="278" y="68.8" fill="#000" font-family="Verdana" font-size="12">nom</text>
	<text x="278" y="85.8" fill="#000" font-family="Verdana" font-size="12">prénom</text>
	<text x="278" y="102.8" fill="#000" font-family="Verdana" font-size="12">email</text>
	<text x="278" y="119.8" fill="#000" font-family="Verdana" font-size="12">téléphone</text>
	<text x="278" y="136.8" fill="#000" font-family="Verdana" font-size="12">adresse</text>
	<text x="278" y="153.8" fill="#000" font-family="Verdana" font-size="12">mot_de_passe</text>
	<text x="278" y="170.8" fill="#000" font-family="Verdana" font-size="12">photo</text>
</g>

<!-- Entity TACHE -->
<g class="page_0_7qixugHm diagram_page" visibility="visible">
	<g>
		<rect x="545" y="52" width="80" height="25" fill="#b8e186" stroke="#b8e186" stroke-width="0" opacity="1"/>
		<rect x="545" y="77" width="80" height="59" fill="#e6f5d0" stroke="#e6f5d0" stroke-width="0" opacity="1"/>
		<rect x="545" y="52" width="80" height="84" fill="none" stroke="#7fbc41" stroke-width="2" opacity="1"/>
		<line x1="545" y1="77" x2="625" y2="77" stroke="#7fbc41" stroke-width="1"/>
	</g>
	<text x="564" y="69.75" fill="#000" font-family="Verdana" font-size="12">TACHE</text>
	<text x="550" y="94.8" fill="#000" font-family="Verdana" font-size="12">code_tache</text>
	<line x1="550" y1="97" x2="620" y2="97" stroke="#000" stroke-width="1"/>
	<text x="550" y="111.8" fill="#000" font-family="Verdana" font-size="12">description</text>
	<text x="550" y="128.8" fill="#000" font-family="Verdana" font-size="12">statut</text>
</g>

<!-- Entity FOURNISSEUR -->
<g class="page_0_7qixugHm diagram_page" visibility="visible">
	<g>
		<rect x="9" y="144" width="114" height="25" fill="#b8e186" stroke="#b8e186" stroke-width="0" opacity="1"/>
		<rect x="9" y="169" width="114" height="127" fill="#e6f5d0" stroke="#e6f5d0" stroke-width="0" opacity="1"/>
		<rect x="9" y="144" width="114" height="152" fill="none" stroke="#7fbc41" stroke-width="2" opacity="1"/>
		<line x1="9" y1="169" x2="123" y2="169" stroke="#7fbc41" stroke-width="1"/>
	</g>
	<text x="21" y="161.75" fill="#000" font-family="Verdana" font-size="12">FOURNISSEUR</text>
	<text x="14" y="186.8" fill="#000" font-family="Verdana" font-size="12">code_fournisseur</text>
	<line x1="14" y1="189" x2="118" y2="189" stroke="#000" stroke-width="1"/>
	<text x="14" y="203.8" fill="#000" font-family="Verdana" font-size="12">nom</text>
	<text x="14" y="220.8" fill="#000" font-family="Verdana" font-size="12">prénom</text>
	<text x="14" y="237.8" fill="#000" font-family="Verdana" font-size="12">email</text>
	<text x="14" y="254.8" fill="#000" font-family="Verdana" font-size="12">téléphone</text>
	<text x="14" y="271.8" fill="#000" font-family="Verdana" font-size="12">adresse</text>
	<text x="14" y="288.8" fill="#000" font-family="Verdana" font-size="12">commentaires</text>
</g>

<!-- Entity DOCUMENT -->
<g class="page_0_7qixugHm diagram_page" visibility="visible">
	<g>
		<rect x="12" y="438" width="108" height="25" fill="#b8e186" stroke="#b8e186" stroke-width="0" opacity="1"/>
		<rect x="12" y="463" width="108" height="77" fill="#e6f5d0" stroke="#e6f5d0" stroke-width="0" opacity="1"/>
		<rect x="12" y="438" width="108" height="102" fill="none" stroke="#7fbc41" stroke-width="2" opacity="1"/>
		<line x1="12" y1="463" x2="120" y2="463" stroke="#7fbc41" stroke-width="1"/>
	</g>
	<text x="31" y="455.75" fill="#000" font-family="Verdana" font-size="12">DOCUMENT</text>
	<text x="17" y="480.8" fill="#000" font-family="Verdana" font-size="12">code_document</text>
	<line x1="17" y1="483" x2="114" y2="483" stroke="#000" stroke-width="1"/>
	<text x="17" y="497.8" fill="#000" font-family="Verdana" font-size="12">titre</text>
	<text x="17" y="514.8" fill="#000" font-family="Verdana" font-size="12">description</text>
	<text x="17" y="531.8" fill="#000" font-family="Verdana" font-size="12">url</text>
</g>

<!-- Entity CLIENT -->
<g class="page_0_7qixugHm diagram_page" visibility="visible">
	<g>
		<rect x="262" y="396" width="134" height="25" fill="#b8e186" stroke="#b8e186" stroke-width="0" opacity="1"/>
		<rect x="262" y="421" width="134" height="161" fill="#e6f5d0" stroke="#e6f5d0" stroke-width="0" opacity="1"/>
		<rect x="262" y="396" width="134" height="186" fill="none" stroke="#7fbc41" stroke-width="2" opacity="1"/>
		<line x1="262" y1="421" x2="396" y2="421" stroke="#7fbc41" stroke-width="1"/>
	</g>
	<text x="307" y="413.75" fill="#000" font-family="Verdana" font-size="12">CLIENT</text>
	<text x="267" y="438.8" fill="#000" font-family="Verdana" font-size="12">code_client</text>
	<line x1="267" y1="441" x2="336" y2="441" stroke="#000" stroke-width="1"/>
	<text x="267" y="455.8" fill="#000" font-family="Verdana" font-size="12">nom</text>
	<text x="267" y="472.8" fill="#000" font-family="Verdana" font-size="12">prénom</text>
	<text x="267" y="489.8" fill="#000" font-family="Verdana" font-size="12">email</text>
	<text x="267" y="506.8" fill="#000" font-family="Verdana" font-size="12">téléphone</text>
	<text x="267" y="523.8" fill="#000" font-family="Verdana" font-size="12">commentaires</text>
	<text x="267" y="540.8" fill="#000" font-family="Verdana" font-size="12">nos_équipements</text>
	<text x="267" y="557.8" fill="#000" font-family="Verdana" font-size="12">autres_équipements</text>
	<text x="267" y="574.8" fill="#000" font-family="Verdana" font-size="12">besoins</text>
</g>

<!-- Entity NOTIFICATION -->
<g class="page_0_7qixugHm diagram_page" visibility="visible">
	<g>
		<rect x="528" y="438" width="114" height="25" fill="#b8e186" stroke="#b8e186" stroke-width="0" opacity="1"/>
		<rect x="528" y="463" width="114" height="77" fill="#e6f5d0" stroke="#e6f5d0" stroke-width="0" opacity="1"/>
		<rect x="528" y="438" width="114" height="102" fill="none" stroke="#7fbc41" stroke-width="2" opacity="1"/>
		<line x1="528" y1="463" x2="642" y2="463" stroke="#7fbc41" stroke-width="1"/>
	</g>
	<text x="540" y="455.75" fill="#000" font-family="Verdana" font-size="12">NOTIFICATION</text>
	<text x="533" y="480.8" fill="#000" font-family="Verdana" font-size="12">code_notification</text>
	<line x1="533" y1="483" x2="637" y2="483" stroke="#000" stroke-width="1"/>
	<text x="533" y="497.8" fill="#000" font-family="Verdana" font-size="12">titre</text>
	<text x="533" y="514.8" fill="#000" font-family="Verdana" font-size="12">description</text>
	<text x="533" y="531.8" fill="#000" font-family="Verdana" font-size="12">date</text>
</g>

<!-- Entity ADRESSE -->
<g class="page_0_7qixugHm diagram_page" visibility="visible">
	<g>
		<rect x="414" y="607" width="96" height="25" fill="#b8e186" stroke="#b8e186" stroke-width="0" opacity="1"/>
		<rect x="414" y="632" width="96" height="111" fill="#e6f5d0" stroke="#e6f5d0" stroke-width="0" opacity="1"/>
		<rect x="414" y="607" width="96" height="136" fill="none" stroke="#7fbc41" stroke-width="2" opacity="1"/>
		<line x1="414" y1="632" x2="510" y2="632" stroke="#7fbc41" stroke-width="1"/>
	</g>
	<text x="433" y="624.75" fill="#000" font-family="Verdana" font-size="12">ADRESSE</text>
	<text x="419" y="649.8" fill="#000" font-family="Verdana" font-size="12">code_adresse</text>
	<line x1="419" y1="652" x2="502" y2="652" stroke="#000" stroke-width="1"/>
	<text x="419" y="666.8" fill="#000" font-family="Verdana" font-size="12">numéro</text>
	<text x="419" y="683.8" fill="#000" font-family="Verdana" font-size="12">rue</text>
	<text x="419" y="700.8" fill="#000" font-family="Verdana" font-size="12">code_postal</text>
	<text x="419" y="717.8" fill="#000" font-family="Verdana" font-size="12">ville</text>
	<text x="419" y="734.8" fill="#000" font-family="Verdana" font-size="12">commentaires</text>
</g>

<!-- Entity PROJET -->
<g class="page_0_7qixugHm diagram_page" visibility="visible">
	<g>
		<rect x="281" y="725" width="96" height="25" fill="#b8e186" stroke="#b8e186" stroke-width="0" opacity="1"/>
		<rect x="281" y="750" width="96" height="93" fill="#e6f5d0" stroke="#e6f5d0" stroke-width="0" opacity="1"/>
		<rect x="281" y="725" width="96" height="118" fill="none" stroke="#7fbc41" stroke-width="2" opacity="1"/>
		<line x1="281" y1="750" x2="377" y2="750" stroke="#7fbc41" stroke-width="1"/>
	</g>
	<text x="306" y="742.75" fill="#000" font-family="Verdana" font-size="12">PROJET</text>
	<text x="286" y="767.8" fill="#000" font-family="Verdana" font-size="12">code_projet</text>
	<line x1="286" y1="770" x2="359" y2="770" stroke="#000" stroke-width="1"/>
	<text x="286" y="784.8" fill="#000" font-family="Verdana" font-size="12">titre</text>
	<text x="286" y="801.8" fill="#000" font-family="Verdana" font-size="12">description</text>
	<text x="286" y="818.8" fill="#000" font-family="Verdana" font-size="12">statut</text>
	<text x="286" y="835.8" fill="#000" font-family="Verdana" font-size="12">commentaires</text>
</g>

<!-- Entity INTERVENTION -->
<g class="page_0_7qixugHm diagram_page" visibility="visible">
	<g>
		<rect x="269" y="943" width="120" height="25" fill="#b8e186" stroke="#b8e186" stroke-width="0" opacity="1"/>
		<rect x="269" y="968" width="120" height="145" fill="#e6f5d0" stroke="#e6f5d0" stroke-width="0" opacity="1"/>
		<rect x="269" y="943" width="120" height="170" fill="none" stroke="#7fbc41" stroke-width="2" opacity="1"/>
		<line x1="269" y1="968" x2="389" y2="968" stroke="#7fbc41" stroke-width="1"/>
	</g>
	<text x="282" y="960.75" fill="#000" font-family="Verdana" font-size="12">INTERVENTION</text>
	<text x="274" y="985.8" fill="#000" font-family="Verdana" font-size="12">code_intervention</text>
	<line x1="274" y1="988" x2="383" y2="988" stroke="#000" stroke-width="1"/>
	<text x="274" y="1002.8" fill="#000" font-family="Verdana" font-size="12">titre</text>
	<text x="274" y="1019.8" fill="#000" font-family="Verdana" font-size="12">description</text>
	<text x="274" y="1036.8" fill="#000" font-family="Verdana" font-size="12">date</text>
	<text x="274" y="1053.8" fill="#000" font-family="Verdana" font-size="12">durée</text>
	<text x="274" y="1070.8" fill="#000" font-family="Verdana" font-size="12">statut</text>
	<text x="274" y="1087.8" fill="#000" font-family="Verdana" font-size="12">commentaires</text>
	<text x="274" y="1104.8" fill="#000" font-family="Verdana" font-size="12">rapport</text>
</g>

<!-- Entity IMAGE -->
<g class="page_0_7qixugHm diagram_page" visibility="visible">
	<g>
		<rect x="287" y="1213" width="84" height="25" fill="#b8e186" stroke="#b8e186" stroke-width="0" opacity="1"/>
		<rect x="287" y="1238" width="84" height="77" fill="#e6f5d0" stroke="#e6f5d0" stroke-width="0" opacity="1"/>
		<rect x="287" y="1213" width="84" height="102" fill="none" stroke="#7fbc41" stroke-width="2" opacity="1"/>
		<line x1="287" y1="1238" x2="371" y2="1238" stroke="#7fbc41" stroke-width="1"/>
	</g>
	<text x="309" y="1230.75" fill="#000" font-family="Verdana" font-size="12">IMAGE</text>
	<text x="292" y="1255.8" fill="#000" font-family="Verdana" font-size="12">code_image</text>
	<line x1="292" y1="1258" x2="366" y2="1258" stroke="#000" stroke-width="1"/>
	<text x="292" y="1272.8" fill="#000" font-family="Verdana" font-size="12">titre</text>
	<text x="292" y="1289.8" fill="#000" font-family="Verdana" font-size="12">url</text>
	<text x="292" y="1306.8" fill="#000" font-family="Verdana" font-size="12">statut</text>
</g>
</svg>